# xmcd
#
# Track frame offsets:
# 150
# 17965
# 35780
# 53595
# 71410
# 89225
# 107040
# 124855
# 142670
# 160485
# 178300
# 196115
# 213930
# 231745
# 249560
# 267375
# 285190
# 303005
# 320820
# 338635
#
# Disc length: 4752 seconds
#
#
# Revision: 0
# Processed by: cddbd v1.4PL0 Copyright (c) Steve Scherf et al.
# Submitted via: FreeRIP 2.40 
#
DISCID=2b128e14
DTITLE=West Wind - Margarita Madness
DYEAR=1900
DGENRE=Country
TTITLE0=West Wind
TTITLE1=West Wind
TTITLE2=West Wind
TTITLE3=West Wind
TTITLE4=West Wind
TTITLE5=West Wind
TTITLE6=West Wind
TTITLE7=West Wind
TTITLE8=West Wind
TTITLE9=West Wind
TTITLE10=West Wind
TTITLE11=West Wind
TTITLE12=West Wind
TTITLE13=West Wind
TTITLE14=West Wind
TTITLE15=West Wind
TTITLE16=West Wind
TTITLE17=West Wind
TTITLE18=West Wind
TTITLE19=West Wind
EXTD=West Wind
EXTT0=West Wind
EXTT1=West Wind
EXTT2=West Wind
EXTT3=West Wind
EXTT4=West Wind
EXTT5=West Wind
EXTT6=West Wind
EXTT7=West Wind
EXTT8=West Wind
EXTT9=West Wind
EXTT10=West Wind
EXTT11=West Wind
EXTT12=West Wind
EXTT13=West Wind
EXTT14=West Wind
EXTT15=West Wind
EXTT16=West Wind
EXTT17=West Wind
EXTT18=West Wind
EXTT19=West Wind
PLAYORDER=
